<svg width="21" height="21" viewBox="0 0 21 21" fill="none" xmlns="http://www.w3.org/2000/svg">
<path d="M10.0078 0.492188C8.63281 0.492188 7.33594 0.757812 6.11719 1.28906C4.89844 1.80469 3.83594 2.51562 2.92969 3.42188C2.02344 4.32812 1.3125 5.39062 0.796875 6.60938C0.265625 7.82812 0 9.125 0 10.5C0 11.75 0.21875 12.9297 0.65625 14.0391C1.09375 15.1641 1.6875 16.1641 2.4375 17.0391C3.1875 17.9141 4.07812 18.6406 5.10938 19.2188C6.14062 19.7969 7.25 20.1875 8.4375 20.3906V13.3828H5.90625V10.5H8.4375V8.29688C8.4375 7.04688 8.78125 6.08594 9.46875 5.41406C10.1562 4.74219 11.0781 4.40625 12.2344 4.40625C12.7812 4.40625 13.2891 4.4375 13.7578 4.5C14.2266 4.5625 14.4609 4.59375 14.4609 4.59375V7.05469H13.1953C12.5703 7.05469 12.1445 7.21875 11.918 7.54688C11.6914 7.875 11.5781 8.23438 11.5781 8.625V10.5H14.3438L13.8984 13.3828H11.5781V20.3672C12.7656 20.1797 13.875 19.7969 14.9062 19.2188C15.9375 18.6406 16.832 17.9141 17.5898 17.0391C18.3477 16.1641 18.9375 15.1641 19.3594 14.0391C19.7969 12.9297 20.0156 11.75 20.0156 10.5C20.0156 9.125 19.75 7.82812 19.2188 6.60938C18.7031 5.39062 17.9922 4.32812 17.0859 3.42188C16.1797 2.51562 15.1172 1.80469 13.8984 1.28906C12.6797 0.757812 11.3828 0.492188 10.0078 0.492188Z" fill="black"/>
</svg>
