<svg width="24" height="25" viewBox="0 0 24 25" fill="none" xmlns="http://www.w3.org/2000/svg">
<path d="M17.6484 8.49219C17.6484 8.58594 17.6484 8.67578 17.6484 8.76172C17.6484 8.84766 17.6484 8.9375 17.6484 9.03125C17.6484 10.3594 17.3984 11.7031 16.8984 13.0625C16.3984 14.4219 15.6641 15.6523 14.6953 16.7539C13.7266 17.8555 12.5312 18.75 11.1094 19.4375C9.6875 20.1406 8.04688 20.4922 6.1875 20.4922C5.04688 20.4922 3.95312 20.332 2.90625 20.0117C1.85938 19.6914 0.890625 19.2422 0 18.6641C0.171875 18.6953 0.335938 18.7109 0.492188 18.7109C0.648438 18.7109 0.8125 18.7109 0.984375 18.7109C1.92188 18.7109 2.81641 18.5625 3.66797 18.2656C4.51953 17.9688 5.28906 17.5469 5.97656 17C5.10156 16.9844 4.32031 16.7148 3.63281 16.1914C2.94531 15.668 2.46875 15.0078 2.20312 14.2109C2.32812 14.2266 2.45703 14.2422 2.58984 14.2578C2.72266 14.2734 2.85156 14.2812 2.97656 14.2812C3.16406 14.2812 3.34375 14.2656 3.51562 14.2344C3.6875 14.2031 3.85938 14.1719 4.03125 14.1406C3.10938 13.9531 2.33984 13.4922 1.72266 12.7578C1.10547 12.0234 0.796875 11.1641 0.796875 10.1797V10.1328C1.07812 10.2734 1.37109 10.3906 1.67578 10.4844C1.98047 10.5781 2.29688 10.6328 2.625 10.6484C2.07812 10.2891 1.64062 9.8125 1.3125 9.21875C0.984375 8.625 0.820312 7.98438 0.820312 7.29688C0.820312 6.92188 0.871094 6.5625 0.972656 6.21875C1.07422 5.875 1.21094 5.55469 1.38281 5.25781C1.88281 5.86719 2.4375 6.42188 3.04688 6.92188C3.65625 7.42188 4.3125 7.85156 5.01562 8.21094C5.71875 8.57031 6.46875 8.85938 7.26562 9.07812C8.04688 9.29688 8.85156 9.42969 9.67969 9.47656C9.64844 9.32031 9.625 9.16406 9.60938 9.00781C9.59375 8.85156 9.58594 8.69531 9.58594 8.53906C9.58594 7.42969 9.97656 6.48047 10.7578 5.69141C11.5391 4.90234 12.4922 4.50781 13.6172 4.50781C14.1953 4.50781 14.7383 4.625 15.2461 4.85938C15.7539 5.09375 16.1875 5.40625 16.5469 5.79688C17.0156 5.70312 17.4648 5.57422 17.8945 5.41016C18.3242 5.24609 18.7266 5.04688 19.1016 4.8125C18.9609 5.28125 18.7383 5.70703 18.4336 6.08984C18.1289 6.47266 17.7656 6.78906 17.3438 7.03906C17.75 6.99219 18.1484 6.91406 18.5391 6.80469C18.9297 6.69531 19.3047 6.5625 19.6641 6.40625C19.3828 6.8125 19.0742 7.19141 18.7383 7.54297C18.4023 7.89453 18.0391 8.21094 17.6484 8.49219Z" fill="black"/>
</svg>
